# xmcd CD database file
#
# Track frame offsets:
#	150
#	13867
#	25818
#	39109
#	51229
#	63185
#	80818
#	94676
#	108940
#	123035
#	137298
#	150838
#	164570
#	174943
#	187162
#	198385
#	209808
#	223680
#	234556
#	246353
#	257307
#	270033
#
# Disc length: 3782 seconds
#
# Revision: 0
# Processed by: cddbd v1.5PL3 Copyright (c) Steve Scherf et al.
# Submitted via: CDex 1.51
#
DISCID=210ec416
DTITLE=Jay McShann - Kansas City Bounce
DYEAR=1900
DGENRE=Jazz
TTITLE0=I've Found A New Baby
TTITLE1=Swingmatism
TTITLE2=Dexter Blues
TTITLE3=Hold 'em Hootie
TTITLE4=So You Won't Jump
TTITLE5=St. Louis Mood
TTITLE6=Get Me On Your Mind
TTITLE7=Sepian Bounce
TTITLE8=Hometown Blues
TTITLE9=Say Forward, I'll March
TTITLE10=Moten Swing
TTITLE11=On the Sunny Side of the Street
TTITLE12=Bad Tale Boogie
TTITLE13=I Want a Little Girl
TTITLE14=McShann Bounce
TTITLE15=Hot Biscuits
TTITLE16=Slow Drag Blues
TTITLE17=The New Look
TTITLE18=Soft Winds
TTITLE19=Geronimo
TTITLE20=You, Cindy Lou
TTITLE21=Let's Love Awhile
EXTD=
EXTT0=
EXTT1=
EXTT2=
EXTT3=
EXTT4=
EXTT5=
EXTT6=
EXTT7=
EXTT8=
EXTT9=
EXTT10=
EXTT11=
EXTT12=
EXTT13=
EXTT14=
EXTT15=
EXTT16=
EXTT17=
EXTT18=
EXTT19=
EXTT20=
EXTT21=
PLAYORDER=
